<svg xmlns="http://www.w3.org/2000/svg" width="22.458" height="17.106" viewBox="0 0 22.458 17.106"><defs><style>.a{fill:#fff;}</style></defs><g transform="translate(0 0)"><path class="a" d="M16.954-15.508V-5.72a7,7,0,0,1-.976,3.756A6.5,6.5,0,0,1,13.328.459,8.289,8.289,0,0,1,9.54,1.3,8.363,8.363,0,0,1,5.718.459,6.389,6.389,0,0,1,3.084-1.963,7.09,7.09,0,0,1,2.125-5.72v-9.789H6.288L6.32-6.467A4.074,4.074,0,0,0,7.2-3.606a3.046,3.046,0,0,0,2.341.943,3.059,3.059,0,0,0,2.325-.943,4.025,4.025,0,0,0,.894-2.862v-9.041Zm5.027,11.9a2.505,2.505,0,0,1,1.837.764A2.505,2.505,0,0,1,24.583-1,2.505,2.505,0,0,1,23.819.833a2.505,2.505,0,0,1-1.837.764A2.505,2.505,0,0,1,20.144.833,2.505,2.505,0,0,1,19.38-1a2.505,2.505,0,0,1,.764-1.837A2.505,2.505,0,0,1,21.982-3.606Z" transform="translate(-2.125 15.508)"/></g></svg>