<svg xmlns="http://www.w3.org/2000/svg" width="16" height="15.933" viewBox="0 0 16 15.933"><defs><style>.a{fill:#141414;}</style></defs><g transform="translate(0 -0.652)"><g transform="translate(0 0.652)"><path class="a" d="M15.611,9.732a.563.563,0,0,0-.471.1A6,6,0,0,1,13.319,10.9a5.7,5.7,0,0,1-2.066.368A6.007,6.007,0,0,1,5.238,5.251a6.305,6.305,0,0,1,.327-1.985,5.494,5.494,0,0,1,.982-1.76A.522.522,0,0,0,6.465.77a.563.563,0,0,0-.471-.1A8.256,8.256,0,0,0,1.657,3.573a8.1,8.1,0,1,0,14.322,6.793A.5.5,0,0,0,15.611,9.732Z" transform="translate(0 -0.652)"/></g></g></svg>