<svg xmlns="http://www.w3.org/2000/svg" width="20" height="20" viewBox="0 0 20 20"><defs><style>.a{fill:#fff;}</style></defs><path class="a" d="M82.915,76.534A4.54,4.54,0,0,0,79.725,75.2a4.441,4.441,0,0,0-3.191,1.334,4.525,4.525,0,0,0,3.191,7.715,4.441,4.441,0,0,0,3.191-1.334,4.54,4.54,0,0,0,1.334-3.191A4.441,4.441,0,0,0,82.915,76.534Z" transform="translate(-69.725 -69.725)"/><path class="a" d="M141.557,3.757A.771.771,0,0,0,142.314,3V.757a.757.757,0,0,0-1.514,0V3A.771.771,0,0,0,141.557,3.757Z" transform="translate(-131.557)"/><path class="a" d="M220.267,44.269l1.6-1.6a.741.741,0,1,0-1.048-1.048l-1.6,1.6a.741.741,0,0,0,1.048,1.048Z" transform="translate(-205.073 -38.386)"/><path class="a" d="M253.8,140.8h-2.243a.757.757,0,1,0,0,1.514H253.8a.757.757,0,0,0,0-1.514Z" transform="translate(-234.557 -131.557)"/><path class="a" d="M219.867,218.818a.741.741,0,0,0-1.048,1.048l1.6,1.6a.741.741,0,0,0,1.048-1.048Z" transform="translate(-204.702 -204.702)"/><path class="a" d="M141.557,250.8a.771.771,0,0,0-.757.757V253.8a.757.757,0,1,0,1.514,0v-2.243A.771.771,0,0,0,141.557,250.8Z" transform="translate(-131.557 -234.557)"/><path class="a" d="M42.82,218.818l-1.6,1.6a.741.741,0,0,0,1.048,1.048l1.6-1.6a.741.741,0,0,0-1.048-1.048Z" transform="translate(-38.015 -204.702)"/><path class="a" d="M3.757,141.557A.771.771,0,0,0,3,140.8H.757a.757.757,0,0,0,0,1.514H3A.771.771,0,0,0,3.757,141.557Z" transform="translate(0 -131.557)"/><path class="a" d="M42.82,44.269a.741.741,0,0,0,1.048-1.048l-1.6-1.6a.741.741,0,0,0-1.048,1.048Z" transform="translate(-38.015 -38.386)"/></svg>